<mxfile host="Electron" agent="Mozilla/5.0 (Windows NT 10.0; Win64; x64) AppleWebKit/537.36 (KHTML, like Gecko) draw.io/28.0.6 Chrome/138.0.7204.100 Electron/37.2.3 Safari/537.36" version="28.0.6" pages="2">
  <diagram name="Crediya Architecture" id="AUBUsiZAKirENkdtemzo">
    <mxGraphModel dx="1111" dy="537" grid="1" gridSize="10" guides="1" tooltips="1" connect="1" arrows="1" fold="1" page="1" pageScale="1" pageWidth="827" pageHeight="1169" math="0" shadow="0">
      <root>
        <mxCell id="0" />
        <mxCell id="1" parent="0" />
        <mxCell id="90t3C7OClqWcpQYPWYTq-1" value="Domain (Core)" style="rounded=1;whiteSpace=wrap;html=1;fillColor=#dae8fc;strokeColor=#6c8ebf;" vertex="1" parent="1">
          <mxGeometry x="70" y="260" width="180" height="140" as="geometry" />
        </mxCell>
        <mxCell id="90t3C7OClqWcpQYPWYTq-2" value="Modelos:&#xa;- SolicitudPrestamo&#xa;- User&#xa;&#xa;Interfaces Repo" style="text;whiteSpace=wrap;html=1;" vertex="1" parent="90t3C7OClqWcpQYPWYTq-1">
          <mxGeometry y="20" width="180" height="140" as="geometry" />
        </mxCell>
        <mxCell id="90t3C7OClqWcpQYPWYTq-3" value="Application (Use Cases)" style="rounded=1;whiteSpace=wrap;html=1;fillColor=#ffe6cc;strokeColor=#d79b00;" vertex="1" parent="1">
          <mxGeometry x="320" y="260" width="220" height="140" as="geometry" />
        </mxCell>
        <mxCell id="90t3C7OClqWcpQYPWYTq-4" value="Casos de uso:&#xa;- RegistrarSolicitudPrestamoUseCase&#xa;- RegisterUserUseCase" style="text;whiteSpace=wrap;html=1;" vertex="1" parent="90t3C7OClqWcpQYPWYTq-3">
          <mxGeometry width="220" height="140" as="geometry" />
        </mxCell>
        <mxCell id="90t3C7OClqWcpQYPWYTq-5" value="Infrastructure" style="rounded=1;whiteSpace=wrap;html=1;fillColor=#e1d5e7;strokeColor=#9673a6;" vertex="1" parent="1">
          <mxGeometry x="600" y="200" width="260" height="260" as="geometry" />
        </mxCell>
        <mxCell id="90t3C7OClqWcpQYPWYTq-6" value="Entrypoints (Handlers):&#xa;- SolicitudPrestamoHandler&#xa;&#xa;Entities:&#xa;- SolicitudPrestamoEntity&#xa;- UserEntity&#xa;&#xa;Config:&#xa;- GlobalExceptionHandler&#xa;- SecurityConfig" style="text;whiteSpace=wrap;html=1;" vertex="1" parent="90t3C7OClqWcpQYPWYTq-5">
          <mxGeometry x="90" y="30" width="260" height="260" as="geometry" />
        </mxCell>
        <mxCell id="90t3C7OClqWcpQYPWYTq-7" value="Llama a" style="edgeStyle=elbowEdgeStyle;rounded=0;orthogonalLoop=1;jettySize=auto;html=1;endArrow=block;" edge="1" parent="1" source="90t3C7OClqWcpQYPWYTq-1" target="90t3C7OClqWcpQYPWYTq-3">
          <mxGeometry relative="1" as="geometry" />
        </mxCell>
        <mxCell id="90t3C7OClqWcpQYPWYTq-8" value="Usa repositorios" style="edgeStyle=elbowEdgeStyle;rounded=0;orthogonalLoop=1;jettySize=auto;html=1;endArrow=block;" edge="1" parent="1" source="90t3C7OClqWcpQYPWYTq-3" target="90t3C7OClqWcpQYPWYTq-5">
          <mxGeometry relative="1" as="geometry" />
        </mxCell>
        <mxCell id="90t3C7OClqWcpQYPWYTq-9" value="Expone API REST" style="edgeStyle=elbowEdgeStyle;rounded=0;orthogonalLoop=1;jettySize=auto;html=1;endArrow=block;" edge="1" parent="1" source="90t3C7OClqWcpQYPWYTq-5" target="90t3C7OClqWcpQYPWYTq-3">
          <mxGeometry relative="1" as="geometry" />
        </mxCell>
      </root>
    </mxGraphModel>
  </diagram>
  <diagram id="CsgdjH-bQYj4nr6L0kyI" name="Flujo de datos end-to-end">
    <mxGraphModel dx="1111" dy="537" grid="1" gridSize="10" guides="1" tooltips="1" connect="1" arrows="1" fold="1" page="1" pageScale="1" pageWidth="827" pageHeight="1169" math="0" shadow="0">
      <root>
        <mxCell id="0" />
        <mxCell id="1" parent="0" />
        <mxCell id="7GIB9yqQLtORUcIQrJah-1" value="Postman / Client" style="shape=cloud;whiteSpace=wrap;html=1;fillColor=#fff2cc;strokeColor=#d6b656;" vertex="1" parent="1">
          <mxGeometry x="40" y="120" width="140" height="80" as="geometry" />
        </mxCell>
        <mxCell id="7GIB9yqQLtORUcIQrJah-2" value="Infrastructure" style="swimlane;childLayout=stackLayout;horizontal=0;rounded=1;html=1;fillColor=#e1d5e7;strokeColor=#9673a6;" vertex="1" parent="1">
          <mxGeometry x="220" y="40" width="743" height="260" as="geometry" />
        </mxCell>
        <mxCell id="7GIB9yqQLtORUcIQrJah-3" value="Handler:&#xa;SolicitudPrestamoHandler" style="rounded=1;whiteSpace=wrap;html=1;fillColor=#d5e8d4;strokeColor=#82b366;" vertex="1" parent="7GIB9yqQLtORUcIQrJah-2">
          <mxGeometry x="23" width="240" height="260" as="geometry" />
        </mxCell>
        <mxCell id="7GIB9yqQLtORUcIQrJah-4" value="Config:&#xa;GlobalExceptionHandler" style="rounded=1;whiteSpace=wrap;html=1;fillColor=#f8cecc;strokeColor=#b85450;" vertex="1" parent="7GIB9yqQLtORUcIQrJah-2">
          <mxGeometry x="263" width="240" height="260" as="geometry" />
        </mxCell>
        <mxCell id="7GIB9yqQLtORUcIQrJah-5" value="Entities &amp; DTOs" style="rounded=1;whiteSpace=wrap;html=1;fillColor=#dae8fc;strokeColor=#6c8ebf;" vertex="1" parent="7GIB9yqQLtORUcIQrJah-2">
          <mxGeometry x="503" width="240" height="260" as="geometry" />
        </mxCell>
        <mxCell id="7GIB9yqQLtORUcIQrJah-6" value="Application (Use Cases)" style="rounded=1;whiteSpace=wrap;html=1;fillColor=#ffe6cc;strokeColor=#d79b00;" vertex="1" parent="1">
          <mxGeometry x="500" y="120" width="220" height="120" as="geometry" />
        </mxCell>
        <mxCell id="7GIB9yqQLtORUcIQrJah-7" value="RegistrarSolicitudPrestamoUseCase&#xa;RegisterUserUseCase" style="text;whiteSpace=wrap;html=1;" vertex="1" parent="7GIB9yqQLtORUcIQrJah-6">
          <mxGeometry width="220" height="120" as="geometry" />
        </mxCell>
        <mxCell id="7GIB9yqQLtORUcIQrJah-8" value="Domain (Core)" style="rounded=1;whiteSpace=wrap;html=1;fillColor=#dae8fc;strokeColor=#6c8ebf;" vertex="1" parent="1">
          <mxGeometry x="760" y="120" width="180" height="120" as="geometry" />
        </mxCell>
        <mxCell id="7GIB9yqQLtORUcIQrJah-9" value="Modelos: SolicitudPrestamo, User&#xa;Interfaces Repo" style="text;whiteSpace=wrap;html=1;" vertex="1" parent="7GIB9yqQLtORUcIQrJah-8">
          <mxGeometry width="180" height="120" as="geometry" />
        </mxCell>
        <mxCell id="7GIB9yqQLtORUcIQrJah-10" value="Database" style="shape=cylinder;whiteSpace=wrap;html=1;boundedLbl=1;fillColor=#fff2cc;strokeColor=#d6b656;" vertex="1" parent="1">
          <mxGeometry x="980" y="120" width="120" height="120" as="geometry" />
        </mxCell>
        <mxCell id="7GIB9yqQLtORUcIQrJah-11" value="HTTP Request" style="endArrow=block;" edge="1" parent="1" source="7GIB9yqQLtORUcIQrJah-1" target="7GIB9yqQLtORUcIQrJah-3">
          <mxGeometry relative="1" as="geometry" />
        </mxCell>
        <mxCell id="7GIB9yqQLtORUcIQrJah-12" value="Valida &amp; llama UseCase" style="endArrow=block;" edge="1" parent="1" source="7GIB9yqQLtORUcIQrJah-3" target="7GIB9yqQLtORUcIQrJah-6">
          <mxGeometry relative="1" as="geometry" />
        </mxCell>
        <mxCell id="7GIB9yqQLtORUcIQrJah-13" value="Aplica reglas" style="endArrow=block;" edge="1" parent="1" source="7GIB9yqQLtORUcIQrJah-6" target="7GIB9yqQLtORUcIQrJah-8">
          <mxGeometry relative="1" as="geometry" />
        </mxCell>
        <mxCell id="7GIB9yqQLtORUcIQrJah-14" value="Repo.save()" style="endArrow=block;" edge="1" parent="1" source="7GIB9yqQLtORUcIQrJah-8" target="7GIB9yqQLtORUcIQrJah-10">
          <mxGeometry relative="1" as="geometry" />
        </mxCell>
        <mxCell id="7GIB9yqQLtORUcIQrJah-15" value="Devuelve ID generado" style="endArrow=block;" edge="1" parent="1" source="7GIB9yqQLtORUcIQrJah-10" target="7GIB9yqQLtORUcIQrJah-3">
          <mxGeometry relative="1" as="geometry" />
        </mxCell>
        <mxCell id="7GIB9yqQLtORUcIQrJah-16" value="JSON Response" style="endArrow=block;" edge="1" parent="1" source="7GIB9yqQLtORUcIQrJah-3" target="7GIB9yqQLtORUcIQrJah-1">
          <mxGeometry relative="1" as="geometry" />
        </mxCell>
        <mxCell id="7GIB9yqQLtORUcIQrJah-17" value="Errores â†’ BadRequest / 500" style="dashed=1;endArrow=block;" edge="1" parent="1" source="7GIB9yqQLtORUcIQrJah-4" target="7GIB9yqQLtORUcIQrJah-1">
          <mxGeometry relative="1" as="geometry" />
        </mxCell>
      </root>
    </mxGraphModel>
  </diagram>
</mxfile>
